<?xml version="1.0" encoding="utf-8"?>
<!-- Svg Vector Icons : http://www.onlinewebfonts.com/icon -->
<!DOCTYPE svg PUBLIC "-//W3C//DTD SVG 1.1//EN" "http://www.w3.org/Graphics/SVG/1.1/DTD/svg11.dtd">
<svg version="1.1" xmlns="http://www.w3.org/2000/svg" xmlns:xlink="http://www.w3.org/1999/xlink" x="0px" y="0px" viewBox="0 0 256 256" enable-background="new 0 0 256 256" xml:space="preserve">
<metadata> Svg Vector Icons : http://www.onlinewebfonts.com/icon </metadata>
<g><g><g><path fill="#000000" d="M89.8,44C80.2,46.6,73,55,72.2,64.6l-0.3,3.9l-5,3.4c-21.5,14.8-37.4,33.3-47,54.4c-1,2.2-2.5,5.4-3.5,7.1c-8.3,15.1-8.7,33.9-1,49.5c5.5,11.2,16.2,21.3,27.7,25.9c11.4,4.7,24.8,5.3,36.3,1.7c19.6-6.1,34.3-23.2,37.2-43.2l0.6-4.3H128h10.8l0.3,3.2c0.8,7.7,4.9,17.9,10.2,25c7.3,9.9,17.7,16.7,30.4,20.2c3.2,0.9,5.3,1,12.4,1.1c7.4,0.1,9.1-0.1,12.9-1.1c5.8-1.5,11.4-3.9,16.1-6.8c4.6-2.9,13.1-11.1,16-15.7c10.9-16.9,11.9-38.2,2.4-55.5c-0.9-1.7-2.5-5-3.6-7.3c-9.8-21.5-25.3-39.4-46.8-54.2l-5-3.4l-0.3-3.9c-0.8-10-8.7-18.7-18.8-20.8c-3.8-0.8-9.7-0.3-13.2,1c-6.2,2.3-11.6,7.9-13.9,14.2c-0.9,2.4-1.1,4.5-1.3,11.1c-0.3,10.1,0.1,9.6-8.6,9.6c-8.8,0-8.3,0.5-8.6-9.6c-0.3-8.7-0.9-11.5-3.8-16.1C110.4,45.7,99.4,41.4,89.8,44z M73.7,120.6c21.2,5.3,34.2,27.7,28.4,48.9c-3.7,13.3-13.7,23.5-27.1,27.8c-5,1.6-14.2,1.9-19.5,0.7c-12.5-2.7-22.4-10.6-27.8-22.2c-2.3-4.8-3.3-8.7-3.6-14.3C22.2,134.6,47.3,114,73.7,120.6z M202.3,120.6c12.5,3.1,23,12.6,27.4,24.7c8.3,22.9-5.3,47.5-29.1,52.7c-5.3,1.2-14.5,0.8-19.5-0.7c-12.7-4-22.3-13.2-26.4-25.4C144.5,142.1,171.6,112.9,202.3,120.6z"/><path fill="#000000" d="M58.2,130.3c-8.4,2.2-16.1,8.4-19.9,16.1c-3.4,7-4.2,13.1-2.7,20.3c1.2,5.9,3.6,10.5,8,15.1c2.1,2.1,3.9,3.9,4.2,3.9c0.2,0-0.3-1.4-1-3.1c-4.3-9.2-3.8-20.5,1.3-29.3c8.2-13.8,25.5-19.1,39.8-12.3c4.5,2.1,4.3,1.5-0.7-3.3c-3.9-3.6-9.8-6.8-14.4-7.8C69.1,129.3,61.5,129.4,58.2,130.3z"/><path fill="#000000" d="M187.3,130.3c-8.4,2.2-16.1,8.4-19.9,16.1c-3.4,7-4.2,13.1-2.7,20.3c1.2,5.9,3.6,10.5,8,15.1c2.1,2.1,3.9,3.9,4.2,3.9c0.2,0-0.3-1.4-1-3.1c-4.3-9.2-3.8-20.5,1.3-29.3c8.2-13.8,25.5-19.1,39.8-12.3c4.5,2.1,4.3,1.5-0.7-3.3c-3.9-3.6-9.8-6.8-14.4-7.8C198.2,129.3,190.6,129.4,187.3,130.3z"/></g></g></g>
</svg>